<?xml version="1.0" encoding="UTF-8"?>
<svg version="1.1" xmlns="http://www.w3.org/2000/svg" width="1024" height="1024">
<path d="M0 0 C1.35398692 -0.00258722 2.70797308 -0.00560138 4.06195819 -0.0090034 C7.76797646 -0.01703462 11.47397532 -0.0188608 15.18000126 -0.01960087 C19.18289771 -0.0214582 23.18578425 -0.02900889 27.18867493 -0.03573608 C35.93472867 -0.04929206 44.68077781 -0.05533978 53.42684031 -0.05974674 C58.89250059 -0.06251364 64.35815911 -0.06675179 69.82381821 -0.07125092 C84.9700643 -0.08343972 100.116309 -0.09373999 115.26255989 -0.09712601 C116.23110116 -0.09734557 117.19964242 -0.09756514 118.19753342 -0.09779136 C119.16833008 -0.09800964 120.13912674 -0.09822791 121.13934147 -0.09845281 C123.10639326 -0.09889627 125.07344504 -0.09934283 127.04049683 -0.09979248 C128.01621273 -0.10001391 128.99192863 -0.10023534 129.99721168 -0.10046348 C145.80115694 -0.10441006 161.60505605 -0.12186156 177.40898348 -0.145152 C193.65210443 -0.16889561 209.89520225 -0.18132922 226.13834083 -0.18249393 C235.25122015 -0.18340896 244.36403931 -0.18911809 253.47690201 -0.20731354 C261.23762575 -0.22275514 268.99827074 -0.22781109 276.75900693 -0.21957543 C280.71417672 -0.21568335 284.66918811 -0.21652756 288.62433815 -0.23063278 C292.25413968 -0.24345865 295.8836652 -0.24209906 299.51346682 -0.23004207 C301.42941007 -0.22718898 303.34535848 -0.23895462 305.26126301 -0.25146413 C329.23074267 -0.11634173 351.69726244 9.11123201 368.69284058 25.96075439 C379.59909004 37.36547426 386.48051926 51.01979871 386.67721558 66.99591064 C385.65424573 84.68580383 373.68339805 95.43573941 361.83370972 107.20953369 C359.80973808 109.2226569 357.79683642 111.24641781 355.78463745 113.27130127 C354.50207622 114.55254311 353.21889591 115.8331656 351.93502808 117.11309814 C351.0319416 118.02225731 351.0319416 118.02225731 350.11061096 118.94978333 C345.87205259 123.14044189 345.87205259 123.14044189 343.64205933 123.14044189 C343.42807495 123.68055908 343.21409058 124.22067627 342.99362183 124.77716064 C341.15567186 127.99091709 338.64522154 130.38942317 336.01705933 132.95294189 C335.4794397 133.48411621 334.94182007 134.01529053 334.38790894 134.56256104 C330.85796386 138.02493725 327.24782831 141.36379007 323.45846558 144.54278564 C321.0787762 146.63588878 318.87659528 148.89511252 316.64205933 151.14044189 C315.30158218 152.48152392 313.96076921 153.82227033 312.61972046 155.16278076 C311.85438492 155.9281163 311.08904938 156.69345184 310.30052185 157.48197937 C229.66439819 238.11810303 229.66439819 238.11810303 227.53320312 240.24847412 C226.3784958 241.40368455 225.22468251 242.55979065 224.07244873 243.71746826 C222.14480623 245.65347392 220.2022536 247.54249005 218.18502808 249.38653564 C217.40772339 250.10969971 216.6304187 250.83286377 215.82955933 251.57794189 C215.03936401 252.29852783 214.2491687 253.01911377 213.43502808 253.76153564 C211.47489003 256.04109856 211.47489003 256.04109856 210.94284058 258.92559814 C212.0375722 263.95891728 215.06898114 266.54408862 218.64205933 270.14044189 C219.71402365 271.23205222 220.78596166 272.3236884 221.85787964 273.41534424 C225.63658085 277.24413524 229.45082284 281.03662661 233.26705933 284.82794189 C234.59021026 286.14606615 235.91312874 287.46442379 237.23580933 288.78302002 C240.1975781 291.7348959 243.16106168 294.68502703 246.12844849 297.6312561 C247.55242901 299.05107361 248.96554615 300.4817626 250.37789917 301.91314697 C252.64756448 304.2319067 252.64756448 304.2319067 255.45455933 306.32794189 C256.17643433 306.92606689 256.89830933 307.52419189 257.64205933 308.14044189 C257.64205933 308.80044189 257.64205933 309.46044189 257.64205933 310.14044189 C258.5367392 310.5466552 258.5367392 310.5466552 259.44949341 310.96107483 C261.61781162 312.12739921 263.00468535 313.26625281 264.72311401 315.01031494 C265.29761292 315.5881926 265.87211182 316.16607025 266.46401978 316.76145935 C267.37972748 317.69735649 267.37972748 317.69735649 268.31393433 318.65216064 C269.27580658 319.62183525 269.27580658 319.62183525 270.2571106 320.61109924 C272.30690695 322.67868216 274.34991377 324.75280413 276.39205933 326.82794189 C278.42072195 328.88440435 280.45088493 330.93932509 282.48416138 332.9912262 C283.74708599 334.26620748 285.00733273 335.54384944 286.26431274 336.82469177 C289.26066831 339.85437844 292.3073342 342.75696971 295.53707886 345.53765869 C300.08514738 349.46624254 304.29979436 353.69020742 308.52487183 357.96075439 C309.75172195 359.19328445 309.75172195 359.19328445 311.00335693 360.45071411 C313.5937157 363.0531934 316.18079166 365.65889735 318.76705933 368.26544189 C322.18340845 371.70846636 325.60310818 375.14811191 329.02487183 378.58575439 C329.80001129 379.3691922 330.57515076 380.15263 331.3737793 380.95980835 C334.54141243 384.14168682 337.67508799 387.24031948 341.18063354 390.05010986 C341.99290405 390.73991943 342.80517456 391.429729 343.64205933 392.14044189 C343.64205933 392.80044189 343.64205933 393.46044189 343.64205933 394.14044189 C344.53477539 394.5466552 344.53477539 394.5466552 345.44552612 394.96107483 C347.61661533 396.12678045 349.0449061 397.28430357 350.78659058 399.01031494 C351.37400024 399.5881926 351.96140991 400.16607025 352.56661987 400.76145935 C353.5011499 401.69735649 353.5011499 401.69735649 354.45455933 402.65216064 C355.10529419 403.29861038 355.75602905 403.94506012 356.42648315 404.61109924 C357.80069414 405.97957337 359.17230003 407.35066781 360.54147339 408.72418213 C362.62584828 410.81170636 364.7231502 412.88558692 366.82174683 414.95880127 C368.15849549 416.29327567 369.49445879 417.62853734 370.82955933 418.96466064 C371.45257935 419.57847092 372.07559937 420.19228119 372.71749878 420.82469177 C378.73886755 426.90991009 382.68090264 432.96033081 382.95455933 441.70294189 C382.75388483 453.09121979 377.59084039 460.41725228 369.64205933 468.14044189 C369.02459839 468.76692627 368.40713745 469.39341064 367.77096558 470.03887939 C351.15216539 485.83567441 328.44416642 490.51154947 306.26705933 490.45294189 C304.4494812 490.47711182 304.4494812 490.47711182 302.59518433 490.50177002 C284.48438614 490.51142396 268.49784104 485.41525956 253.64205933 475.14044189 C252.65205933 474.48044189 251.66205933 473.82044189 250.64205933 473.14044189 C250.64205933 472.48044189 250.64205933 471.82044189 250.64205933 471.14044189 C249.75123499 470.7366583 249.75123499 470.7366583 248.8424142 470.32471746 C246.63842416 469.13848538 245.20084998 467.95177811 243.43638134 466.19203281 C242.82313981 465.58524018 242.20989828 464.97844754 241.57807368 464.35326725 C240.91358393 463.6856803 240.24909418 463.01809335 239.56446838 462.33027649 C238.85136798 461.6217072 238.13826758 460.91313791 237.40355808 460.18309683 C235.00910392 457.80132894 232.62188232 455.4124419 230.23458862 453.02349854 C228.52164061 451.31653334 226.8082822 449.60997991 225.09454346 447.90380859 C220.91901788 443.74414092 216.74830864 439.57968359 212.58014854 435.41263843 C209.18927803 432.02271879 205.79683147 428.63438451 202.40326881 425.24715996 C192.7737054 415.63521452 183.14835177 406.01908161 173.5283431 396.3975733 C173.00971955 395.87886984 172.49109601 395.36016638 171.95675659 394.82574463 C171.43749719 394.30640346 170.91823778 393.78706229 170.38324324 393.25198352 C161.98018296 384.8481115 153.56720784 376.45424419 145.14964046 368.06490523 C136.49842296 359.44246992 127.85474093 350.81254288 119.2187646 342.17484182 C114.3736127 337.32902757 109.52546501 332.48630315 104.66919518 327.65162849 C100.09713207 323.09976689 95.53560215 318.53751894 90.98089218 313.96829224 C89.31187674 312.2971914 87.63947138 310.62946799 85.96336174 308.96548271 C72.83936138 295.93024985 60.80657958 283.15259544 59.39205933 263.70294189 C59.75111533 246.40297088 67.96120843 234.42652559 80.05563354 222.77911377 C83.25728925 219.75911973 86.51594943 216.80284782 89.77536011 213.84552002 C93.26002435 210.66256225 96.69953145 207.43132423 100.14205933 204.20294189 C100.81245239 203.57621582 101.48284546 202.94948975 102.17355347 202.30377197 C105.00307079 199.65183494 107.798467 196.99540392 110.48580933 194.19903564 C112.64205933 192.14044189 112.64205933 192.14044189 114.64205933 192.14044189 C114.97205933 191.15044189 115.30205933 190.16044189 115.64205933 189.14044189 C117.06784058 187.70294189 117.06784058 187.70294189 118.95455933 186.14044189 C122.43540688 183.18419016 125.83940103 180.165702 129.20455933 177.07794189 C129.69915649 176.62507812 130.19375366 176.17221436 130.70333862 175.70562744 C133.71934688 172.93603589 136.70646551 170.13822666 139.67721558 167.32012939 C140.35647095 166.67825684 141.03572632 166.03638428 141.73556519 165.37506104 C143.07506407 164.10768035 144.41061797 162.83611532 145.74191284 161.56011963 C146.35091431 160.98463379 146.95991577 160.40914795 147.58737183 159.81622314 C148.3997229 159.0414563 148.3997229 159.0414563 149.22848511 158.2510376 C150.64205933 157.14044189 150.64205933 157.14044189 152.64205933 157.14044189 C152.64205933 156.48044189 152.64205933 155.82044189 152.64205933 155.14044189 C153.93502808 153.83575439 153.93502808 153.83575439 155.82955933 152.26544189 C159.50817241 149.13443321 163.09807174 145.92237216 166.64205933 142.64044189 C167.19176392 142.13174561 167.74146851 141.62304932 168.30783081 141.09893799 C176.99181024 133.04797333 185.62539025 124.94230149 194.22799683 116.80450439 C194.98628784 116.08810791 195.74457886 115.37171143 196.52584839 114.63360596 C197.97978122 113.25949689 199.43233993 111.88393188 200.88327026 110.50665283 C203.85716037 107.69693874 206.83123284 104.94517545 210.00924683 102.36700439 C213.5539841 99.38893749 213.5539841 99.38893749 214.83737183 95.09747314 C214.8141687 94.38977783 214.79096558 93.68208252 214.76705933 92.95294189 C214.70518433 91.06575439 214.70518433 91.06575439 214.64205933 89.14044189 C210.28808918 87.48555968 206.68297096 86.8867086 202.03422546 86.87301636 C200.72085205 86.86448639 199.40747864 86.85595642 198.05430603 86.84716797 C196.61065662 86.84786691 195.1670073 86.84878993 193.72335815 86.84991455 C192.19353916 86.843926 190.66372317 86.8371197 189.13391113 86.82955933 C184.98694966 86.81192192 180.84007078 86.8072048 176.69307542 86.80592775 C174.09822312 86.80450392 171.50339166 86.80022984 168.90854454 86.79493332 C159.84436084 86.77643806 150.78023588 86.76826177 141.71603394 86.76983643 C133.28634795 86.77103657 124.85691852 86.74995804 116.42729741 86.7183491 C109.17524768 86.6921315 101.92328144 86.68147148 94.67118472 86.68274724 C90.34651743 86.68325542 86.02207807 86.67765314 81.69745827 86.65639114 C77.6253333 86.63691691 73.55365146 86.6369464 69.48151016 86.65142441 C67.99450337 86.65350253 66.50746818 86.64887162 65.02050972 86.63670349 C53.3704837 86.54761281 43.12176215 87.79697247 34.36471558 96.14044189 C29.40392898 101.89990388 26.52267466 108.07881966 26.51063156 115.69086456 C26.50486984 117.06068474 26.50486984 117.06068474 26.49899173 118.45817804 C26.49985821 119.45776969 26.50072469 120.45736135 26.50161743 121.48724365 C26.49864631 122.55208528 26.49567519 123.61692691 26.49261403 124.71403646 C26.48391896 128.29433054 26.48241808 131.87459121 26.48092651 135.45489502 C26.47629881 138.01726351 26.47127422 140.5796313 26.46588135 143.14199829 C26.45274835 150.11341946 26.4462735 157.08482962 26.44187069 164.05626106 C26.43910647 168.41230008 26.43486868 172.76833687 26.43036652 177.12437439 C26.4181725 189.1925467 26.40787471 201.26071723 26.40449142 213.32889557 C26.40427186 214.10125049 26.40405229 214.87360541 26.40382607 215.66936502 C26.4036078 216.44354348 26.40338952 217.21772194 26.40316463 218.01536036 C26.40272116 219.58407243 26.4022746 221.15278451 26.40182495 222.72149658 C26.40160352 223.49962792 26.40138209 224.27775926 26.40115395 225.07947034 C26.39721003 237.67439611 26.37976901 250.26926388 26.35646543 262.86416727 C26.33271539 275.80525617 26.32028785 288.74631601 26.31912351 301.68742704 C26.31820859 308.94918698 26.31250295 316.21087141 26.29430389 323.47261047 C26.27723312 330.30816533 26.27567758 337.14357507 26.2844429 343.97914505 C26.28521227 346.48325102 26.28088386 348.98736474 26.27098465 351.49145126 C26.25822829 354.92039334 26.26416246 358.34883178 26.27456665 361.777771 C26.26651025 362.75951687 26.25845384 363.74126275 26.2501533 364.7527585 C26.33436225 376.68892905 28.98857532 386.99773112 37.23580933 395.85137939 C44.09292763 402.22332424 52.59185323 406.23290188 61.95455933 406.29815674 C63.01666626 406.30841888 64.07877319 406.31868103 65.17306519 406.32925415 C66.89021729 406.34020615 66.89021729 406.34020615 68.64205933 406.35137939 C71.08086792 406.37946568 73.51966991 406.40813024 75.95846558 406.43731689 C79.79163299 406.47842325 83.62467948 406.5153218 87.45797729 406.54180908 C91.16542916 406.56963056 94.8723257 406.61551955 98.57955933 406.66387939 C99.70813354 406.66713226 100.83670776 406.67038513 101.9994812 406.67373657 C118.9711842 406.93231737 132.34903442 412.49440173 144.65768433 423.96856689 C146.64205933 426.14044189 146.64205933 426.14044189 146.64205933 428.14044189 C147.30205933 428.14044189 147.96205933 428.14044189 148.64205933 428.14044189 C150.03683472 429.56085205 150.03683472 429.56085205 151.67721558 431.55450439 C156.62656306 437.37771904 162.11566457 442.62778137 167.5854187 447.95684814 C168.36594604 448.72641846 169.14647339 449.49598877 169.95065308 450.28887939 C170.66020142 450.98158936 171.36974976 451.67429932 172.10079956 452.38800049 C173.64205933 454.14044189 173.64205933 454.14044189 173.64205933 456.14044189 C174.30205933 456.14044189 174.96205933 456.14044189 175.64205933 456.14044189 C175.64205933 456.80044189 175.64205933 457.46044189 175.64205933 458.14044189 C176.63205933 458.47044189 177.62205933 458.80044189 178.64205933 459.14044189 C180.18502808 460.67169189 180.18502808 460.67169189 181.82955933 462.64044189 C183.78224849 464.96784753 185.73386431 467.23583429 187.84127808 469.42559814 C191.13365383 472.8716575 193.37417828 475.29450174 194.82955933 479.89044189 C194.61398979 483.62698047 194.074192 485.30295378 191.64205933 488.14044189 C187.36330746 490.41391666 183.22633854 490.42717833 178.49320984 490.40786743 C177.26853556 490.4146641 177.26853556 490.4146641 176.0191204 490.42159808 C173.28505866 490.43425112 170.55119592 490.43262106 167.81710815 490.43096924 C165.85545089 490.43695441 163.89379598 490.44375993 161.93214417 490.45132446 C156.60081059 490.46900479 151.26954122 490.47368104 145.93818116 490.47495604 C142.60138105 490.47637842 139.2645972 490.48064995 135.92780113 490.48595047 C124.26849713 490.50446593 112.60923887 490.51262024 100.94992065 490.51104736 C90.11478064 490.50984944 79.27984096 490.53087921 68.44475156 490.56253469 C59.1221441 490.58879164 49.7996016 490.59941054 40.4769575 490.59813654 C34.91855027 490.59762915 29.36032058 490.60318664 23.80195045 490.62449265 C18.56106412 490.644031 13.3205216 490.64389409 8.07962227 490.62945938 C6.16984294 490.62738853 4.26004123 490.63196751 2.35029984 490.6441803 C-24.10303543 490.80220442 -46.102075 484.06545077 -65.35794067 465.14044189 C-66.29766724 464.22005127 -66.29766724 464.22005127 -67.25637817 463.28106689 C-77.50504836 452.42953376 -83.08516901 438.42528658 -85.96340942 423.98028564 C-86.36927423 421.92262885 -86.36927423 421.92262885 -87.35794067 419.14044189 C-87.45023752 417.18149426 -87.48168369 415.21948719 -87.4809885 413.25836658 C-87.48297955 412.0227548 -87.4849706 410.78714302 -87.48702198 409.51408845 C-87.48416876 408.13553652 -87.48122316 406.75698478 -87.47819519 405.37843323 C-87.47863102 403.91978934 -87.47950614 402.46114553 -87.48078436 401.00250214 C-87.48302701 396.98451468 -87.47901114 392.96655373 -87.4740063 388.94856966 C-87.46969872 384.61933858 -87.47114844 380.29010908 -87.47190857 375.96087646 C-87.47243361 368.45694434 -87.46928889 360.9530209 -87.46367073 353.44909096 C-87.45555303 342.59958973 -87.45294023 331.75009271 -87.45168274 320.90058877 C-87.44949265 303.29914095 -87.44283371 285.69769775 -87.43338013 268.09625244 C-87.42420491 250.99534122 -87.41712461 233.89443125 -87.41287231 216.79351807 C-87.41260959 215.7398968 -87.41234687 214.68627553 -87.41207618 213.60072634 C-87.41077117 208.3151611 -87.40950746 203.02959585 -87.40826428 197.74403059 C-87.39789299 153.87616449 -87.38027583 110.00830343 -87.35794067 66.14044189 C-87.02794067 66.14044189 -86.69794067 66.14044189 -86.35794067 66.14044189 C-86.15040161 65.22005127 -85.94286255 64.29966064 -85.72903442 63.35137939 C-80.94305385 43.68680649 -70.58903761 25.99045027 -53.25442505 14.78009033 C-48.71457831 12.0557837 -44.06597382 9.56017974 -39.35794067 7.14044189 C-39.35794067 6.48044189 -39.35794067 5.82044189 -39.35794067 5.14044189 C-38.24419067 5.03731689 -37.13044067 4.93419189 -35.98294067 4.82794189 C-31.81630461 4.31999509 -28.01446797 3.20007949 -24.04544067 1.85919189 C-16.15763813 -0.25033669 -8.1020233 -0.0056285 0 0 Z " fill="#8936ED" transform="translate(359.3579406738281,274.85955810546875)"/>
<path d="M0 0 C4.84404253 4.03711135 9.40272666 8.26399456 13.84439087 12.7375946 C14.82199782 13.71603662 14.82199782 13.71603662 15.81935441 14.71424514 C17.98563617 16.88354407 20.1483175 19.05639627 22.31103516 21.22924805 C23.87020665 22.79197853 25.42961532 24.3544724 26.98924255 25.91674805 C30.3386922 29.27273248 33.68662816 32.63021711 37.03343582 35.98883629 C42.32496907 41.29869663 47.62087764 46.60417842 52.91757202 51.90888977 C60.34146842 59.34468171 67.76432373 66.78151078 75.18554688 74.2199707 C75.65578456 74.69129851 76.12602225 75.16262632 76.61050956 75.64823679 C83.29099277 82.344347 89.96998624 89.04194122 96.64839511 95.74012021 C97.11923917 96.21235759 97.59008324 96.68459497 98.07519531 97.17114258 C98.54546153 97.64280232 99.01572775 98.11446207 99.50024445 98.60041454 C107.34253503 106.46574242 115.18874484 114.32714895 123.03801 122.18551666 C128.30519061 127.45924221 133.56783078 132.73744458 138.82716775 138.01899183 C142.09649792 141.30004161 145.36999155 144.57691239 148.64468575 147.85260773 C150.16338643 149.37345791 151.68036247 150.89603254 153.19548988 152.42044258 C155.26226435 154.49938939 157.33510515 156.57209385 159.40957642 158.64335632 C160.00889815 159.24918586 160.60821988 159.8550154 161.22570288 160.4792034 C164.29774983 163.5327719 167.18859724 165.87527378 171 168 C173.5209971 170.39494724 175.89187986 172.88286985 178.25 175.4375 C183.09385039 179.95108787 188.54789405 183.37546409 194.5 186.25 C198 188 198 188 199 190 C199.99 189.67 200.98 189.34 202 189 C205.125 189.8125 205.125 189.8125 208 191 C208.33 191.66 208.66 192.32 209 193 C216.79839104 194.8120388 225.37187399 194.08327872 233.3125 194 C235.78771615 193.97444279 238.2629844 193.95342684 240.73828125 193.9375 C241.82149658 193.92589844 242.90471191 193.91429687 244.02075195 193.90234375 C246.80411527 193.99357913 249.29475904 194.36354641 252 195 C252 194.34 252 193.68 252 193 C252.56847656 192.95101562 253.13695312 192.90203125 253.72265625 192.8515625 C262.15298249 192.03527048 269.27853679 189.56194472 277.03515625 186.21875 C280 185 280 185 283.30859375 184.03125 C284.19675781 183.6909375 285.08492187 183.350625 286 183 C286.33 182.01 286.66 181.02 287 180 C288.85546875 178.67578125 288.85546875 178.67578125 291.1875 177.3125 C295.42776332 174.62519936 298.03338629 171.78767008 300.80859375 167.63671875 C302 166 302 166 304 165 C307.8371169 156.28728044 308.40754021 146.89746609 305 138 C304.34 137.67 303.68 137.34 303 137 C303 135.68 303 134.36 303 133 C302.401875 132.71125 301.80375 132.4225 301.1875 132.125 C298.28428349 130.63191722 296.31813866 129.53113027 294.61791992 126.69262695 C292.77487487 123.62533499 290.65760888 121.43145605 288.11328125 118.91796875 C287.4204731 118.22940544 287.4204731 118.22940544 286.71366882 117.52693176 C285.25127862 116.07565086 283.78205874 114.63151796 282.3125 113.1875 C281.31399177 112.19903354 280.31594011 111.21010563 279.31835938 110.22070312 C276.88335692 107.80922726 274.4438041 105.40255043 272 103 C275.51243873 103 275.74582533 103.36830617 278.12280273 105.73461914 C278.73030869 106.33266861 279.33781464 106.93071808 279.96372986 107.54689026 C280.61378494 108.20301804 281.26384003 108.85914581 281.93359375 109.53515625 C282.94511253 110.54236977 282.94511253 110.54236977 283.97706604 111.56993103 C285.40547893 112.99629942 286.8300982 114.42647532 288.2512207 115.86010742 C290.41495914 118.03979301 292.59406485 120.20316648 294.77539062 122.36523438 C296.16242032 123.75424839 297.5485181 125.14419373 298.93359375 126.53515625 C299.5816246 127.17711441 300.22965546 127.81907257 300.89732361 128.48048401 C306.97791514 134.65523789 311.03503082 140.69808987 311.3125 149.5625 C311.1118255 160.95077789 305.94878106 168.27681039 298 176 C297.38253906 176.62648438 296.76507812 177.25296875 296.12890625 177.8984375 C279.51010606 193.69523252 256.8021071 198.37110758 234.625 198.3125 C233.41328125 198.32861328 232.2015625 198.34472656 230.953125 198.36132812 C212.84232682 198.37098207 196.85578171 193.27481767 182 183 C181.01 182.34 180.02 181.68 179 181 C179 180.34 179 179.68 179 179 C178.10978059 178.59699417 178.10978059 178.59699417 177.20157695 178.18584681 C174.9876405 176.99334274 173.54596627 175.79656361 171.77476883 174.02645111 C171.15721041 173.41410819 170.53965199 172.80176526 169.90337968 172.17086649 C169.23411509 171.49714046 168.56485051 170.82341443 167.87530518 170.12927246 C166.79824613 169.05689339 166.79824613 169.05689339 165.69942832 167.96285009 C163.28864447 165.56005951 160.88509114 163.15016399 158.48144531 160.74023438 C156.75715433 159.01865261 155.03243798 157.2974968 153.30732727 155.57673645 C149.10623534 151.3838287 144.90985845 147.18623867 140.71575722 142.98634112 C137.30848164 139.57455133 133.89926209 136.16471554 130.48863983 132.75627136 C130.00349357 132.27143157 129.51834732 131.78659178 129.01849966 131.28705987 C128.03299527 130.30219492 127.04748639 129.31733447 126.06197307 128.33247846 C116.82022561 119.09643478 107.58461984 109.85426925 98.35109827 100.61000293 C90.42161735 92.67158082 82.4868993 84.73842509 74.54833984 76.80908203 C65.33436926 67.60580351 56.12363763 58.39930343 46.91808581 49.18760347 C45.93742712 48.20630766 44.95676423 47.22501603 43.97609711 46.24372864 C43.49355776 45.76088074 43.01101841 45.27803284 42.51385666 44.78055319 C39.10675802 41.37172483 35.69733816 37.96522868 32.28702545 34.55961609 C27.70231411 29.98108456 23.12289918 25.39729904 18.54707909 20.80988121 C16.86209002 19.12223633 15.17537579 17.43631197 13.48686409 15.75219154 C11.19219379 13.46294171 8.90370238 11.16769386 6.61676025 8.87072754 C5.59947904 7.86013849 5.59947904 7.86013849 4.5616467 6.82913351 C3.95451927 6.21679059 3.34739184 5.60444766 2.72186661 4.97354889 C2.19242644 4.44378401 1.66298626 3.91401914 1.11750245 3.36820078 C0 2 0 2 0 0 Z " fill="#8629A4" transform="translate(431,567)"/>
<path d="M0 0 C5.5279304 -0.03853109 11.0558164 -0.0684762 16.58384132 -0.08934021 C18.47432162 -0.09801161 20.36478996 -0.1100833 22.25522423 -0.12586975 C24.75474988 -0.14624936 27.25400457 -0.15450134 29.75360107 -0.15917969 C30.81134578 -0.17227676 30.81134578 -0.17227676 31.89045906 -0.18563843 C35.47924702 -0.17758322 38.07496608 0.09549503 41.1293335 2.05371094 C37.50386345 3.26220095 34.19296994 3.19200046 30.41944885 3.18069458 C29.62623739 3.18225457 28.83302594 3.18381456 28.01577777 3.18542182 C25.34893974 3.18942102 22.68215831 3.18624627 20.01531982 3.18310547 C18.10669929 3.18446004 16.19807901 3.18624029 14.28945923 3.18841553 C9.09711007 3.19298473 3.90478071 3.19120199 -1.28756881 3.18803644 C-6.71975366 3.18550837 -12.15193679 3.1878518 -17.5841217 3.18942261 C-26.71292424 3.19124377 -35.84171871 3.1888402 -44.97052002 3.18408203 C-55.5183134 3.17864766 -66.06608743 3.18039628 -76.61388034 3.18590844 C-85.66876967 3.19045081 -94.72365319 3.19108436 -103.77854329 3.18846977 C-109.18680438 3.18691214 -114.59505638 3.186699 -120.00331688 3.19000626 C-125.09302167 3.19290098 -130.18270161 3.19087982 -135.27240372 3.185112 C-137.13799943 3.18379264 -139.00359725 3.18416449 -140.86919212 3.18637466 C-143.42144394 3.18911883 -145.97361682 3.18566515 -148.52586365 3.18069458 C-149.25924947 3.1829253 -149.9926353 3.18515602 -150.74824494 3.18745434 C-155.53335101 3.16945691 -160.13157145 2.72410606 -164.8706665 2.05371094 C-164.8706665 1.72371094 -164.8706665 1.39371094 -164.8706665 1.05371094 C-145.17760288 0.92149954 -125.48452824 0.79105441 -105.79144001 0.66255951 C-96.64198073 0.60282182 -87.49252561 0.54254968 -78.34307861 0.48095703 C-59.37743897 0.3535238 -40.4117935 0.2315792 -21.44600105 0.12898254 C-19.87908043 0.12049818 -18.31215983 0.11200928 -16.74523926 0.10351562 C-15.98826354 0.09941775 -15.23128783 0.09531988 -14.45137346 0.09109783 C-9.63421664 0.06460525 -4.81711212 0.03366574 0 0 Z " fill="#A735E4" transform="translate(506.87066650390625,760.9462890625)"/>
<path d="M0 0 C0 0.33 0 0.66 0 1 C-2.60356241 1.50333542 -5.20776651 2.00279378 -7.8125 2.5 C-8.55048828 2.64308594 -9.28847656 2.78617187 -10.04882812 2.93359375 C-13.07794391 3.50926281 -15.909196 4 -19 4 C-19 4.66 -19 5.32 -19 6 C-19.59425781 6.23074219 -20.18851562 6.46148437 -20.80078125 6.69921875 C-26.4434797 8.91944069 -31.98405711 11.29229892 -37.47265625 13.87109375 C-40 15 -40 15 -43.625 16.125 C-48.19804712 18.66558173 -50.67235677 22.2281431 -53.8515625 26.32421875 C-56.34584501 29.43073424 -58.75797987 31.70686381 -62 34 C-62.66 34 -63.32 34 -64 34 C-64.10183594 34.70511719 -64.20367187 35.41023438 -64.30859375 36.13671875 C-65.09914812 39.41059645 -66.40523734 41.88584467 -68.0625 44.8125 C-68.61035156 45.78832031 -69.15820312 46.76414062 -69.72265625 47.76953125 C-70.14417969 48.50558594 -70.56570313 49.24164063 -71 50 C-71.66 50 -72.32 50 -73 50 C-75.02214499 57.99955473 -76.52087184 65.75569133 -77 74 C-77.33 74 -77.66 74 -78 74 C-78 72.35 -78 70.7 -78 69 C-78.66 69 -79.32 69 -80 69 C-79.67 68.01 -79.34 67.02 -79 66 C-78.76023437 64.98292969 -78.52046875 63.96585937 -78.2734375 62.91796875 C-73.5641164 43.36404853 -63.10008267 25.76528095 -45.89648438 14.63964844 C-41.35663763 11.91534181 -36.70803315 9.41973785 -32 7 C-32 6.34 -32 5.68 -32 5 C-30.88625 4.896875 -29.7725 4.79375 -28.625 4.6875 C-25.27243759 4.27879539 -22.21772026 3.52110318 -19 2.5 C-12.66687239 0.50875589 -6.66111741 -0.16652794 0 0 Z " fill="#4E30D1" transform="translate(352,275)"/>
<path d="M0 0 C2.84961853 1.29666419 4.92401374 2.66933757 7.14453125 4.86987305 C7.73194092 5.4477507 8.31935059 6.02562836 8.92456055 6.62101746 C9.54758057 7.24494888 10.17060059 7.86888031 10.8125 8.51171875 C11.46323486 9.15816849 12.11396973 9.80461823 12.78442383 10.47065735 C14.15863482 11.83913147 15.53024071 13.21022591 16.89941406 14.58374023 C18.98378896 16.67126447 21.08109087 18.74514502 23.1796875 20.81835938 C24.51643617 22.15283378 25.85239947 23.48809544 27.1875 24.82421875 C27.81052002 25.43802902 28.43354004 26.05183929 29.07543945 26.68424988 C35.14632448 32.81950951 39.07957934 38.86823081 39.25 47.6875 C39.19794944 52.69922553 38.45543994 57.56404061 36 62 C35.01 62.33 34.02 62.66 33 63 C33.144375 62.2265625 33.28875 61.453125 33.4375 60.65625 C34.98521113 51.97187091 36.10186038 44.44395325 33 36 C32.01 35.505 32.01 35.505 31 35 C31 33.68 31 32.36 31 31 C30.1028125 30.566875 30.1028125 30.566875 29.1875 30.125 C26.28294275 28.6312277 24.31776049 27.5310041 22.61791992 24.69042969 C20.77602358 21.6275509 18.66377231 19.45391418 16.11328125 16.953125 C15.17548828 16.02628906 14.23769531 15.09945312 13.27148438 14.14453125 C12.28549607 13.17934024 11.29916371 12.21450058 10.3125 11.25 C8.36792849 9.34170192 6.4274826 7.42939859 4.48828125 5.515625 C3.62759033 4.67290039 2.76689941 3.83017578 1.88012695 2.96191406 C0 1 0 1 0 0 Z " fill="#B63898" transform="translate(703,669)"/>
<path d="M0 0 C0.66 0.33 1.32 0.66 2 1 C-1.37498736 4.42431819 -4.75641049 7.84209712 -8.14404297 11.25390625 C-9.29624094 12.41617986 -10.44663992 13.58023967 -11.59521484 14.74609375 C-13.24370414 16.41876279 -14.89849505 18.08496235 -16.5546875 19.75 C-17.06933563 20.2749707 -17.58398376 20.79994141 -18.11422729 21.34082031 C-19.37208852 22.59907712 -20.68187263 23.80502498 -22 25 C-22.66 25 -23.32 25 -24 25 C-24.20882812 25.52980469 -24.41765625 26.05960937 -24.6328125 26.60546875 C-26.56893678 29.99645213 -29.14056882 32.54856057 -31.875 35.3125 C-32.40480469 35.87517578 -32.93460938 36.43785156 -33.48046875 37.01757812 C-35.0546875 38.61328125 -35.0546875 38.61328125 -38 41 C-40.18408203 40.64916992 -40.18408203 40.64916992 -42 40 C-41.52054932 39.52578613 -41.04109863 39.05157227 -40.54711914 38.56298828 C-38.38298162 36.41959665 -36.22270353 34.2723561 -34.0625 32.125 C-33.30775391 31.37863281 -32.55300781 30.63226563 -31.77539062 29.86328125 C-30.69741211 28.79013672 -30.69741211 28.79013672 -29.59765625 27.6953125 C-28.60004272 26.7055542 -28.60004272 26.7055542 -27.58227539 25.69580078 C-25.9186289 24.07326068 -25.9186289 24.07326068 -25 22 C-24.25468018 21.7230127 -23.50936035 21.44602539 -22.74145508 21.16064453 C-19.43798435 19.76206052 -17.64447765 17.98598367 -15.13671875 15.4296875 C-14.25048828 14.53378906 -13.36425781 13.63789063 -12.45117188 12.71484375 C-11.53916016 11.77769531 -10.62714844 10.84054687 -9.6875 9.875 C-8.74744428 8.91988395 -7.80669569 7.96544933 -6.86523438 7.01171875 C-4.56991933 4.68109117 -2.28190354 2.34374804 0 0 Z " fill="#862BB5" transform="translate(727,373)"/>
<path d="M0 0 C0 5.57643548 -5.25096103 9.21293845 -8.9765625 13.01953125 C-13.34765677 17.16961513 -17.99934026 20.41784223 -23.1875 23.4375 C-24.06063843 23.95086914 -24.06063843 23.95086914 -24.95141602 24.47460938 C-28.61530031 26.52150704 -31.83355542 27.55111143 -36 28 C-35 25 -35 25 -33.14453125 23.90234375 C-32.37496094 23.58394531 -31.60539063 23.26554688 -30.8125 22.9375 C-30.00425781 22.5971875 -29.19601562 22.256875 -28.36328125 21.90625 C-26.4383012 21.16807583 -24.47276411 20.53637482 -22.5 19.9375 C-21.675 19.628125 -20.85 19.31875 -20 19 C-19.67 18.01 -19.34 17.02 -19 16 C-17.14453125 14.67578125 -17.14453125 14.67578125 -14.8125 13.3125 C-10.60826679 10.64981897 -8.071204 7.89411791 -5.38671875 3.734375 C-3.79234321 1.74028277 -2.33414503 0.9754636 0 0 Z " fill="#C73BA4" transform="translate(737,731)"/>
<path d="M0 0 C-0.66 0.33 -1.32 0.66 -2 1 C-2 1.66 -2 2.32 -2 3 C-17.12122667 6.34445955 -31.57490256 7.28187995 -47 7 C-47 6.34 -47 5.68 -47 5 C-44.21588241 4.21346432 -41.73776683 3.87183558 -38.84765625 3.8671875 C-37.68266602 3.86525391 -37.68266602 3.86525391 -36.49414062 3.86328125 C-35.29047852 3.86908203 -35.29047852 3.86908203 -34.0625 3.875 C-33.26392578 3.87113281 -32.46535156 3.86726562 -31.64257812 3.86328125 C-27.63004434 3.86993002 -23.91557332 4.00330861 -20 5 C-20 4.34 -20 3.68 -20 3 C-19.41992188 2.95101562 -18.83984375 2.90203125 -18.2421875 2.8515625 C-12.0232585 2.25635147 -6.19537643 -0.36443391 0 0 Z " fill="#E642CF" transform="translate(703,757)"/>
<path d="M0 0 C4.27461239 0.48938319 6.32551066 2.95742826 9.25 5.9375 C10.14203125 6.83339844 11.0340625 7.72929688 11.953125 8.65234375 C14 11 14 11 14 13 C14.66 13 15.32 13 16 13 C16 13.66 16 14.32 16 15 C16.99 15.33 17.98 15.66 19 16 C20.60546875 17.84765625 20.60546875 17.84765625 22.1875 20.0625 C22.71730469 20.79597656 23.24710938 21.52945313 23.79296875 22.28515625 C24.19128906 22.85105469 24.58960938 23.41695312 25 24 C21.9856221 23.65874967 20.37697083 23.34954052 18.12109375 21.2578125 C17.56550781 20.55398438 17.00992188 19.85015625 16.4375 19.125 C14.63839822 16.87300654 13.11227116 15.0827678 10.78515625 13.3671875 C10.19605469 12.91601562 9.60695313 12.46484375 9 12 C9 11.34 9 10.68 9 10 C8.34 10 7.68 10 7 10 C5.2734375 8.3203125 5.2734375 8.3203125 3.375 6.125 C2.74335937 5.40570312 2.11171875 4.68640625 1.4609375 3.9453125 C0 2 0 2 0 0 Z " fill="#A831C4" transform="translate(519,718)"/>
<path d="M0 0 C2.10253906 0.42578125 2.10253906 0.42578125 4 1 C1.40804932 3.67877946 -1.20047108 6.34080633 -3.8125 9 C-4.91948242 10.1446875 -4.91948242 10.1446875 -6.04882812 11.3125 C-6.76103516 12.034375 -7.47324219 12.75625 -8.20703125 13.5 C-9.18893433 14.50546875 -9.18893433 14.50546875 -10.19067383 15.53125 C-12 17 -12 17 -15 17 C-17.35666976 18.99157649 -17.35666976 18.99157649 -19.6875 21.5 C-20.49574219 22.3353125 -21.30398438 23.170625 -22.13671875 24.03125 C-22.75160156 24.6809375 -23.36648438 25.330625 -24 26 C-24 23 -24 23 -22.3125 20.984375 C-21.549375 20.24703125 -20.78625 19.5096875 -20 18.75 C-19.17757813 17.95335937 -18.35515625 17.15671875 -17.5078125 16.3359375 C-14.70119141 13.72167051 -11.83827193 11.19243793 -8.9140625 8.7109375 C-6.30124561 6.37539914 -3.96625087 3.80665147 -1.640625 1.1875 C-1.09921875 0.795625 -0.5578125 0.40375 0 0 Z " fill="#652ACA" transform="translate(456,482)"/>
<path d="M0 0 C2.90543872 1.31376917 4.96661059 2.72056492 7.20800781 4.98095703 C8.10848846 5.88166428 8.10848846 5.88166428 9.02716064 6.80056763 C9.980513 7.76940384 9.980513 7.76940384 10.953125 8.7578125 C11.61334656 9.42086395 12.27356812 10.08391541 12.95379639 10.76705933 C15.05727824 12.88171832 17.15369142 15.00323212 19.25 17.125 C20.67662261 18.56165557 22.10370072 19.99785898 23.53125 21.43359375 C27.02613661 24.95050804 30.51470062 28.47358547 34 32 C33.505 32.99 33.505 32.99 33 34 C31.55447996 32.9484372 30.11890356 31.883199 28.6875 30.8125 C27.48673828 29.92498047 27.48673828 29.92498047 26.26171875 29.01953125 C24 27 24 27 22.6640625 24.68920898 C20.78671146 21.65531496 18.65957648 19.44980012 16.11328125 16.953125 C15.17548828 16.02628906 14.23769531 15.09945312 13.27148438 14.14453125 C12.28549607 13.17934024 11.29916371 12.21450058 10.3125 11.25 C8.36792849 9.34170192 6.4274826 7.42939859 4.48828125 5.515625 C3.62759033 4.67290039 2.76689941 3.83017578 1.88012695 2.96191406 C0 1 0 1 0 0 Z " fill="#8E2C84" transform="translate(703,669)"/>
<path d="M0 0 C0.66 0.33 1.32 0.66 2 1 C1.3503125 1.5878125 1.3503125 1.5878125 0.6875 2.1875 C-1.08576367 3.94087905 -1.08576367 3.94087905 -2.1875 6.1875 C-5.99482559 12.09541901 -10.43552296 16.48662188 -17 19 C-19.77152212 21.52056045 -19.77152212 21.52056045 -22 24 C-22.66 23.67 -23.32 23.34 -24 23 C-19.13357577 18.03219193 -14.20920665 13.23384787 -8.9296875 8.70703125 C-5.81053864 5.94778419 -2.90248778 2.98412025 0 0 Z " fill="#6829CC" transform="translate(538,406)"/>
<path d="M0 0 C4.79725617 1.9544377 7.79965483 5.69962607 11.25 9.4375 C14.8570097 12.79857722 18.84533262 15.36599519 23 18 C22.67 18.66 22.34 19.32 22 20 C17.97430168 19.3806618 15.19773922 17.44933217 12 15 C11.54109375 14.2265625 11.0821875 13.453125 10.609375 12.65625 C8.82355207 9.70877527 6.79461414 7.63219006 4.3125 5.25 C2.85896801 3.84978736 1.4166885 2.43747848 0 1 C0 0.67 0 0.34 0 0 Z " fill="#C739CF" transform="translate(598,733)"/>
<path d="M0 0 C3.56764285 1.51376081 5.83706287 3.60513129 8.546875 6.3515625 C9.39121094 7.20234375 10.23554687 8.053125 11.10546875 8.9296875 C12.41451172 10.26386719 12.41451172 10.26386719 13.75 11.625 C14.63816406 12.5221875 15.52632812 13.419375 16.44140625 14.34375 C18.63216969 16.55807004 20.81812763 18.77692435 23 21 C22.34 21.33 21.68 21.66 21 22 C14.63109192 16.79395435 14.63109192 16.79395435 12.0625 13.5625 C9.61387988 10.520275 6.8215169 8.21078645 3.8046875 5.74609375 C1.93947694 3.94144197 1.00736637 2.37302283 0 0 Z " fill="#D03DE7" transform="translate(654,623)"/>
<path d="M0 0 C3.5218253 1.95656961 6.34442785 3.95100975 9 7 C9 7.66 9 8.32 9 9 C9.66 9 10.32 9 11 9 C12.54296875 10.42578125 12.54296875 10.42578125 14.1875 12.3125 C15.01314453 13.23482422 15.01314453 13.23482422 15.85546875 14.17578125 C16.23316406 14.77777344 16.61085938 15.37976563 17 16 C16.67 16.99 16.34 17.98 16 19 C11.33027139 15.55329555 8.49238859 12.05237208 5.4921875 7.0859375 C3.89865937 4.85833535 2.18135358 3.61963163 0 2 C0 1.34 0 0.68 0 0 Z " fill="#912BBA" transform="translate(497,694)"/>
<path d="M0 0 C-0.99 0.495 -0.99 0.495 -2 1 C-2 1.66 -2 2.32 -2 3 C-7.65146223 4.17122859 -13.27601207 5.25339288 -19 6 C-19.33 5.01 -19.66 4.02 -20 3 C-19.41992188 2.95101562 -18.83984375 2.90203125 -18.2421875 2.8515625 C-12.0232585 2.25635147 -6.19537643 -0.36443391 0 0 Z " fill="#DD3FBD" transform="translate(703,757)"/>
<path d="M0 0 C1.32 0.33 2.64 0.66 4 1 C-1.94 6.94 -7.88 12.88 -14 19 C-14.99 18.67 -15.98 18.34 -17 18 C-16.34 18 -15.68 18 -15 18 C-15 17.34 -15 16.68 -15 16 C-13.56858573 14.76831795 -12.1311681 13.54252002 -10.65625 12.36328125 C-8.27293142 10.40154025 -6.15173019 8.20988506 -4 6 C-3.4225 5.46375 -2.845 4.9275 -2.25 4.375 C-0.74340914 2.90383382 -0.74340914 2.90383382 0 0 Z " fill="#B739F0" transform="translate(720,376)"/>
<path d="M0 0 C-1.86779121 1.15754698 -3.74459249 2.30056261 -5.625 3.4375 C-6.66914062 4.07558594 -7.71328125 4.71367188 -8.7890625 5.37109375 C-11.9655677 6.98253252 -14.48099171 7.62485047 -18 8 C-17 5 -17 5 -15.07421875 3.90234375 C-14.28660156 3.58394531 -13.49898437 3.26554688 -12.6875 2.9375 C-9.24818452 1.52949944 -9.24818452 1.52949944 -5.95703125 -0.18359375 C-3.55431803 -1.18592322 -2.40752267 -0.85982953 0 0 Z " fill="#C33AA4" transform="translate(719,751)"/>
<path d="M0 0 C1.32 0 2.64 0 4 0 C5.04390404 1.63952497 6.03160641 3.31477253 7 5 C9.28371749 7.55086118 11.73541 9.92435618 14.1875 12.3125 C15.16879883 13.28026367 15.16879883 13.28026367 16.16992188 14.26757812 C17.77548783 15.84970516 19.3855469 17.4269513 21 19 C20.01 19.33 19.02 19.66 18 20 C17.278125 19.113125 16.55625 18.22625 15.8125 17.3125 C13.35726654 14.37033476 10.74331385 11.67951585 8 9 C6.55950446 7.58637937 5.12217876 6.1695237 3.6875 4.75 C2.99011719 4.06421875 2.29273438 3.3784375 1.57421875 2.671875 C0 1 0 1 0 0 Z " fill="#C23BEF" transform="translate(613,583)"/>
<path d="M0 0 C7.550045 4.69513049 7.550045 4.69513049 9.25 9.625 C9 13 9 13 7.0625 15.4375 C6.381875 15.953125 5.70125 16.46875 5 17 C4.34 16.67 3.68 16.34 3 16 C3.66 15.34 4.32 14.68 5 14 C5.58442963 11.12762267 5.58442963 11.12762267 5 8 C2.56249975 5.31232422 2.56249975 5.31232422 0 3 C0 2.01 0 1.02 0 0 Z " fill="#BF37CD" transform="translate(545,745)"/>
<path d="M0 0 C2.375 0.9375 2.375 0.9375 5 3 C7.04142129 8.13945761 7.23235407 13.53967932 7 19 C6.34 19 5.68 19 5 19 C3 9 3 9 2.55859375 6.23046875 C2.37425781 5.49441406 2.18992187 4.75835938 2 4 C1.34 3.67 0.68 3.34 0 3 C0 2.01 0 1.02 0 0 Z " fill="#F345CA" transform="translate(734,701)"/>
<path d="M0 0 C0.66 0.33 1.32 0.66 2 1 C-3.61 6.61 -9.22 12.22 -15 18 C-15.66 17.67 -16.32 17.34 -17 17 C-11.33333333 11.33333333 -5.66666667 5.66666667 0 0 Z " fill="#B038F4" transform="translate(598,499)"/>
<path d="M0 0 C3.39192363 0.59283621 5.2107757 1.76743189 7.75 4.0625 C8.67039062 4.88427734 8.67039062 4.88427734 9.609375 5.72265625 C10.29773438 6.35494141 10.29773438 6.35494141 11 7 C10.67 8.32 10.34 9.64 10 11 C8.8274869 10.04882866 7.66212985 9.08882991 6.5 8.125 C5.8503125 7.59132813 5.200625 7.05765625 4.53125 6.5078125 C4.0259375 6.01023437 3.520625 5.51265625 3 5 C3 4.34 3 3.68 3 3 C2.34 3 1.68 3 1 3 C0.67 2.01 0.34 1.02 0 0 Z " fill="#AE33CB" transform="translate(643,612)"/>
<path d="M0 0 C3.35250701 0.57575664 4.93818629 1.59306263 7.25 4.0625 C8.03117188 4.88427734 8.03117188 4.88427734 8.828125 5.72265625 C9.21484375 6.14417969 9.6015625 6.56570313 10 7 C9.67 7.66 9.34 8.32 9 9 C7.49428343 7.88266271 5.99555708 6.75589965 4.5 5.625 C3.6646875 4.99851562 2.829375 4.37203125 1.96875 3.7265625 C1.3190625 3.15679688 0.669375 2.58703125 0 2 C0 1.34 0 0.68 0 0 Z " fill="#B738A3" transform="translate(727,694)"/>
<path d="M0 0 C0.33 0.66 0.66 1.32 1 2 C0.06553465 4.03144641 -0.93224776 6.03533587 -2 8 C-2.66 8 -3.32 8 -4 8 C-4.33 8.99 -4.66 9.98 -5 11 C-4.50769231 4.6 -4.50769231 4.6 -1.9375 1.5625 C-0.9784375 0.7890625 -0.9784375 0.7890625 0 0 Z " fill="#6032DD" transform="translate(389,374)"/>
<path d="M0 0 C0.66 0.33 1.32 0.66 2 1 C0.25 3.5 0.25 3.5 -2 6 C-3.32 6 -4.64 6 -6 6 C-5 3 -5 3 -2.5625 1.25 C-1.716875 0.8375 -0.87125 0.425 0 0 Z " fill="#DB3FB4" transform="translate(723,744)"/>
<path d="M0 0 C1 2 1 2 0.3125 4.5 C-1.15567038 7.29651501 -2.09303901 7.93411431 -5 9 C-3.7508258 5.54074837 -2.32472205 2.85306797 0 0 Z " fill="#4D2FCE" transform="translate(288,307)"/>
<path d="M0 0 C2.5 2.3125 2.5 2.3125 5 5 C5 5.99 5 6.98 5 8 C2 7 2 7 0 4 C0 2.68 0 1.36 0 0 Z " fill="#892CC8" transform="translate(732,307)"/>
<path d="M0 0 C3.68754757 0.49831724 5.60490662 1.10067643 8 4 C7.67 4.66 7.34 5.32 7 6 C3.73539027 4.19587357 2.11070205 3.16605307 0 0 Z " fill="#B335B0" transform="translate(695,663)"/>
<path d="M0 0 C0.99 0.33 1.98 0.66 3 1 C0.69 3.31 -1.62 5.62 -4 8 C-4.33 7.01 -4.66 6.02 -5 5 C-4.34 5 -3.68 5 -3 5 C-3 4.34 -3 3.68 -3 3 C-2.34 3 -1.68 3 -1 3 C-0.67 2.01 -0.34 1.02 0 0 Z " fill="#B138F0" transform="translate(623,473)"/>
<path d="M0 0 C1.65 0.99 3.3 1.98 5 3 C4.67 4.98 4.34 6.96 4 9 C3.71125 8.38125 3.4225 7.7625 3.125 7.125 C2.06279958 4.86674235 2.06279958 4.86674235 0 3 C0 2.01 0 1.02 0 0 Z " fill="#D63FB8" transform="translate(734,701)"/>
<path d="M0 0 C1.32 0 2.64 0 4 0 C5.60337726 2.25660504 6.76582217 4.53164435 8 7 C4.2047869 5.50902342 2.38957269 3.24299151 0 0 Z " fill="#B337E1" transform="translate(613,583)"/>
<path d="M0 0 C3.91402949 1.26941497 5.79072873 2.51167694 8 6 C7.1646875 5.566875 7.1646875 5.566875 6.3125 5.125 C3.91505355 3.9586747 1.48403061 2.9660119 -1 2 C-0.67 1.34 -0.34 0.68 0 0 Z " fill="#7529B8" transform="translate(713,290)"/>
<path d="M0 0 C0.99 0 1.98 0 3 0 C2.67 0.66 2.34 1.32 2 2 C1.34 1.34 0.68 0.68 0 0 Z " fill="#8139D5" transform="translate(333,764)"/>
<path d="M0 0 C4 1 4 1 4 1 Z " fill="#9C39E1" transform="translate(419,680)"/>
<path d="M0 0 C0.33 0.66 0.66 1.32 1 2 C0.34 1.67 -0.32 1.34 -1 1 C-0.67 0.67 -0.34 0.34 0 0 Z " fill="#C749B3" transform="translate(695,762)"/>
<path d="M0 0 C2 1 2 1 2 1 Z " fill="#C349B3" transform="translate(674,766)"/>
<path d="M0 0 C2 1 2 1 2 1 Z " fill="#BE47B7" transform="translate(658,766)"/>
<path d="M0 0 C2 1 2 1 2 1 Z " fill="#AC3FCC" transform="translate(531,766)"/>
<path d="M0 0 C2 1 2 1 2 1 Z " fill="#9C3CD4" transform="translate(467,766)"/>
<path d="M0 0 C2 1 2 1 2 1 Z " fill="#8F3DD7" transform="translate(400,766)"/>
<path d="" fill="#C145B9" transform="translate(0,0)"/>
<path d="M0 0 C2 1 2 1 2 1 Z " fill="#C446AF" transform="translate(691,764)"/>
<path d="M0 0 C2 1 2 1 2 1 Z " fill="#AD3AC2" transform="translate(549,764)"/>
<path d="M0 0 C2 1 2 1 2 1 Z " fill="#BE3BD6" transform="translate(568,708)"/>
<path d="M0 0 C2 1 2 1 2 1 Z " fill="#A738DD" transform="translate(483,684)"/>
<path d="M0 0 C2 1 2 1 2 1 Z " fill="#9D39DE" transform="translate(443,680)"/>
<path d="M0 0 C2 1 2 1 2 1 Z " fill="#9B39DE" transform="translate(435,680)"/>
<path d="M0 0 C2 1 2 1 2 1 Z " fill="#B136DD" transform="translate(537,677)"/>
<path d="M0 0 C2 1 2 1 2 1 Z " fill="#B037E2" transform="translate(529,669)"/>
<path d="" fill="#AE37E0" transform="translate(0,0)"/>
<path d="M0 0 C2 1 2 1 2 1 Z " fill="#8F39EB" transform="translate(442,582)"/>
<path d="" fill="#853DEB" transform="translate(0,0)"/>
<path d="" fill="#803AEB" transform="translate(0,0)"/>
<path d="" fill="#653FE8" transform="translate(0,0)"/>
<path d="M0 0 C2 1 2 1 2 1 Z " fill="#813BE8" transform="translate(548,273)"/>
<path d="" fill="#514165" transform="translate(0,0)"/>
<path d="" fill="#534063" transform="translate(0,0)"/>
<path d="" fill="#56426B" transform="translate(0,0)"/>
<path d="" fill="#564263" transform="translate(0,0)"/>
<path d="" fill="#5C4371" transform="translate(0,0)"/>
<path d="" fill="#594370" transform="translate(0,0)"/>
<path d="" fill="#5E436F" transform="translate(0,0)"/>
<path d="" fill="#584271" transform="translate(0,0)"/>
<path d="" fill="#54416D" transform="translate(0,0)"/>
<path d="" fill="#624381" transform="translate(0,0)"/>
<path d="" fill="#61456C" transform="translate(0,0)"/>
<path d="" fill="#6D4386" transform="translate(0,0)"/>
<path d="" fill="#784584" transform="translate(0,0)"/>
<path d="" fill="#514368" transform="translate(0,0)"/>
<path d="" fill="#A63DCF" transform="translate(0,0)"/>
<path d="" fill="#A63FCF" transform="translate(0,0)"/>
<path d="" fill="#A43ED1" transform="translate(0,0)"/>
<path d="" fill="#A23DD2" transform="translate(0,0)"/>
<path d="" fill="#A23CD3" transform="translate(0,0)"/>
<path d="" fill="#A03DD2" transform="translate(0,0)"/>
<path d="" fill="#963CD9" transform="translate(0,0)"/>
<path d="" fill="#973CD9" transform="translate(0,0)"/>
<path d="" fill="#943CD7" transform="translate(0,0)"/>
<path d="" fill="#903BD6" transform="translate(0,0)"/>
<path d="" fill="#903BD7" transform="translate(0,0)"/>
<path d="" fill="#8B3BD7" transform="translate(0,0)"/>
<path d="" fill="#893CD6" transform="translate(0,0)"/>
<path d="" fill="#8B3CD7" transform="translate(0,0)"/>
<path d="" fill="#8A3CD6" transform="translate(0,0)"/>
<path d="" fill="#C246AD" transform="translate(0,0)"/>
<path d="" fill="#C848B4" transform="translate(0,0)"/>
<path d="" fill="#CC4BBA" transform="translate(0,0)"/>
<path d="" fill="#C244BB" transform="translate(0,0)"/>
<path d="" fill="#8539D8" transform="translate(0,0)"/>
<path d="" fill="#BE43B9" transform="translate(0,0)"/>
<path d="" fill="#803DD2" transform="translate(0,0)"/>
<path d="" fill="#8437D8" transform="translate(0,0)"/>
<path d="" fill="#B941C1" transform="translate(0,0)"/>
<path d="" fill="#BB41BE" transform="translate(0,0)"/>
<path d="" fill="#C140C3" transform="translate(0,0)"/>
<path d="" fill="#C647A9" transform="translate(0,0)"/>
<path d="" fill="#BC40C5" transform="translate(0,0)"/>
<path d="" fill="#C349AB" transform="translate(0,0)"/>
<path d="" fill="#C548AC" transform="translate(0,0)"/>
<path d="" fill="#C23CC8" transform="translate(0,0)"/>
<path d="" fill="#BC3BC3" transform="translate(0,0)"/>
<path d="" fill="#BB3EC9" transform="translate(0,0)"/>
<path d="" fill="#C33BCE" transform="translate(0,0)"/>
<path d="" fill="#C645AB" transform="translate(0,0)"/>
<path d="" fill="#BF3DCA" transform="translate(0,0)"/>
<path d="" fill="#B83DD2" transform="translate(0,0)"/>
<path d="" fill="#C03DCB" transform="translate(0,0)"/>
<path d="" fill="#BB3CCF" transform="translate(0,0)"/>
<path d="" fill="#C239D0" transform="translate(0,0)"/>
<path d="" fill="#7E3BD6" transform="translate(0,0)"/>
<path d="" fill="#7D3CD5" transform="translate(0,0)"/>
<path d="" fill="#7C39D4" transform="translate(0,0)"/>
<path d="" fill="#BE48AC" transform="translate(0,0)"/>
<path d="" fill="#BC3CD5" transform="translate(0,0)"/>
<path d="" fill="#BF37D2" transform="translate(0,0)"/>
<path d="" fill="#C238D7" transform="translate(0,0)"/>
<path d="" fill="#C137D6" transform="translate(0,0)"/>
<path d="" fill="#7D3BD8" transform="translate(0,0)"/>
<path d="" fill="#C347AF" transform="translate(0,0)"/>
<path d="" fill="#B93BD9" transform="translate(0,0)"/>
<path d="" fill="#B539DC" transform="translate(0,0)"/>
<path d="" fill="#A03AE1" transform="translate(0,0)"/>
<path d="" fill="#9F3CDF" transform="translate(0,0)"/>
<path d="" fill="#9C3BDF" transform="translate(0,0)"/>
<path d="" fill="#B337E4" transform="translate(0,0)"/>
<path d="" fill="#9839E6" transform="translate(0,0)"/>
<path d="" fill="#AE37E5" transform="translate(0,0)"/>
<path d="" fill="#574775" transform="translate(0,0)"/>
<path d="" fill="#AC38E4" transform="translate(0,0)"/>
<path d="" fill="#A631E0" transform="translate(0,0)"/>
<path d="" fill="#A935E5" transform="translate(0,0)"/>
<path d="" fill="#574669" transform="translate(0,0)"/>
<path d="" fill="#A235E5" transform="translate(0,0)"/>
<path d="" fill="#BA42CD" transform="translate(0,0)"/>
<path d="" fill="#A239E8" transform="translate(0,0)"/>
<path d="" fill="#A039EA" transform="translate(0,0)"/>
<path d="" fill="#9D39E7" transform="translate(0,0)"/>
<path d="" fill="#A134EA" transform="translate(0,0)"/>
<path d="" fill="#9D35E8" transform="translate(0,0)"/>
<path d="" fill="#9936E5" transform="translate(0,0)"/>
<path d="" fill="#8E39EE" transform="translate(0,0)"/>
<path d="" fill="#8C35E9" transform="translate(0,0)"/>
<path d="" fill="#8E3BED" transform="translate(0,0)"/>
<path d="" fill="#8E39EB" transform="translate(0,0)"/>
<path d="" fill="#8F39E9" transform="translate(0,0)"/>
<path d="" fill="#8B37E7" transform="translate(0,0)"/>
<path d="" fill="#8939EE" transform="translate(0,0)"/>
<path d="" fill="#A53BDF" transform="translate(0,0)"/>
<path d="" fill="#A43BE3" transform="translate(0,0)"/>
<path d="" fill="#A539E3" transform="translate(0,0)"/>
<path d="" fill="#A339DE" transform="translate(0,0)"/>
<path d="" fill="#863DF0" transform="translate(0,0)"/>
<path d="" fill="#843FEB" transform="translate(0,0)"/>
<path d="" fill="#A439DE" transform="translate(0,0)"/>
<path d="" fill="#823CE6" transform="translate(0,0)"/>
<path d="" fill="#8139E9" transform="translate(0,0)"/>
<path d="" fill="#614875" transform="translate(0,0)"/>
<path d="" fill="#853BEB" transform="translate(0,0)"/>
<path d="" fill="#843DED" transform="translate(0,0)"/>
<path d="" fill="#863BEB" transform="translate(0,0)"/>
<path d="" fill="#873AEE" transform="translate(0,0)"/>
<path d="" fill="#8539ED" transform="translate(0,0)"/>
<path d="" fill="#8337EC" transform="translate(0,0)"/>
<path d="" fill="#A13BD8" transform="translate(0,0)"/>
<path d="" fill="#8C38EE" transform="translate(0,0)"/>
<path d="" fill="#8B39EE" transform="translate(0,0)"/>
<path d="" fill="#A33CDB" transform="translate(0,0)"/>
<path d="" fill="#8838EE" transform="translate(0,0)"/>
<path d="" fill="#8739EE" transform="translate(0,0)"/>
<path d="" fill="#A23ED6" transform="translate(0,0)"/>
<path d="" fill="#8A39EC" transform="translate(0,0)"/>
<path d="" fill="#A53ADC" transform="translate(0,0)"/>
<path d="" fill="#9E3CD1" transform="translate(0,0)"/>
<path d="" fill="#6E3FF1" transform="translate(0,0)"/>
<path d="" fill="#8D3BEE" transform="translate(0,0)"/>
<path d="" fill="#913BF1" transform="translate(0,0)"/>
<path d="" fill="#6D3FE9" transform="translate(0,0)"/>
<path d="" fill="#6F3DF1" transform="translate(0,0)"/>
<path d="" fill="#6C39F2" transform="translate(0,0)"/>
<path d="" fill="#703DF2" transform="translate(0,0)"/>
<path d="" fill="#53456A" transform="translate(0,0)"/>
<path d="" fill="#60497C" transform="translate(0,0)"/>
<path d="" fill="#653FEA" transform="translate(0,0)"/>
<path d="" fill="#6440E7" transform="translate(0,0)"/>
<path d="" fill="#953CD9" transform="translate(0,0)"/>
<path d="" fill="#643EE8" transform="translate(0,0)"/>
<path d="" fill="#643DE5" transform="translate(0,0)"/>
<path d="" fill="#933CDD" transform="translate(0,0)"/>
<path d="" fill="#633FE7" transform="translate(0,0)"/>
<path d="" fill="#633EE7" transform="translate(0,0)"/>
<path d="" fill="#554576" transform="translate(0,0)"/>
<path d="" fill="#8D3BDB" transform="translate(0,0)"/>
<path d="" fill="#8837DC" transform="translate(0,0)"/>
<path d="" fill="#633FE9" transform="translate(0,0)"/>
<path d="" fill="#633EE7" transform="translate(0,0)"/>
<path d="" fill="#813AE8" transform="translate(0,0)"/>
<path d="" fill="#7E3DEA" transform="translate(0,0)"/>
<path d="" fill="#7D3CEA" transform="translate(0,0)"/>
<path d="" fill="#7B3CEA" transform="translate(0,0)"/>
<path d="" fill="#733FED" transform="translate(0,0)"/>
<path d="" fill="#6E3EEB" transform="translate(0,0)"/>
<path d="" fill="#6C3FEC" transform="translate(0,0)"/>
<path d="" fill="#6C3FEE" transform="translate(0,0)"/>
<path d="" fill="#574470" transform="translate(0,0)"/>
<path d="" fill="#55457D" transform="translate(0,0)"/>
<path d="" fill="#52426A" transform="translate(0,0)"/>
<path d="" fill="#4F4365" transform="translate(0,0)"/>
<path d="" fill="#554475" transform="translate(0,0)"/>
<path d="" fill="#4D4264" transform="translate(0,0)"/>
<path d="" fill="#534471" transform="translate(0,0)"/>
<path d="" fill="#524371" transform="translate(0,0)"/>
<path d="" fill="#514369" transform="translate(0,0)"/>
<path d="" fill="#554570" transform="translate(0,0)"/>
</svg>
